# xmcd CD database file
#
# Track frame offsets:
#	150
#	23852
#	43757
#	90862
#	113012
#	147780
#	159347
#	190355
#	209132
#	234337
#	252634
#	273635
#	290465
#
# Disc length: 4263 seconds
#
# Revision: 0
# Processed by: cddbd v1.5.2PL0 Copyright (c) Steve Scherf et al.
# Submitted via: CDex 1.70beta2
#
DISCID=bb10a50d
DTITLE=Otis Spann - Last Call
DYEAR=1970
DGENRE=Blues
TTITLE0=Country Girl
TTITLE1=Get on Down to the Nitty Gritty
TTITLE2=Long Distance Call
TTITLE3=I Got My Mojo Working
TTITLE4=Chains of Love
TTITLE5=Stomp With Spann
TTITLE6=My Baby (Sweet as an Apple)
TTITLE7=I Wonder Why
TTITLE8=My Man
TTITLE9=Blues Jam
TTITLE10=He's Got The Whole World in His Hands
TTITLE11=My God
TTITLE12=Blues For Otis
EXTD=YEAR: 1970
EXTT0=
EXTT1=
EXTT2=
EXTT3=
EXTT4=
EXTT5=
EXTT6=
EXTT7=
EXTT8=
EXTT9=
EXTT10=
EXTT11=
EXTT12=
PLAYORDER=
